<svg width="1080" height="1080" viewBox="0 0 1080 1080" fill="none" xmlns="http://www.w3.org/2000/svg">
<path d="M147.7 603.9C147.7 553.5 157.6 508.8 177.4 469.8C197.8 430.8 225.1 400.8 259.3 379.8C294.1 358.8 332.8 348.3 375.4 348.3C412.6 348.3 445 355.8 472.6 370.8C500.8 385.8 523.3 404.7 540.1 427.5V356.4H667V855H540.1V782.1C523.9 805.5 501.4 825 472.6 840.6C444.4 855.6 411.7 863.1 374.5 863.1C332.5 863.1 294.1 852.3 259.3 830.7C225.1 809.1 197.8 778.8 177.4 739.8C157.6 700.2 147.7 654.9 147.7 603.9ZM540.1 605.7C540.1 575.1 534.1 549 522.1 527.4C510.1 505.2 493.9 488.4 473.5 477C453.1 465 431.2 459 407.8 459C384.4 459 362.8 464.7 343 476.1C323.2 487.5 307 504.3 294.4 526.5C282.4 548.1 276.4 573.9 276.4 603.9C276.4 633.9 282.4 660.3 294.4 683.1C307 705.3 323.2 722.4 343 734.4C363.4 746.4 385 752.4 407.8 752.4C431.2 752.4 453.1 746.7 473.5 735.3C493.9 723.3 510.1 706.5 522.1 684.9C534.1 662.7 540.1 636.3 540.1 605.7Z" fill="#CFFF00"/>
<path d="M845.861 861.3C823.061 861.3 804.161 854.4 789.161 840.6C774.761 826.2 767.561 808.5 767.561 787.5C767.561 766.5 774.761 749.1 789.161 735.3C804.161 720.9 823.061 713.7 845.861 713.7C868.061 713.7 886.361 720.9 900.761 735.3C915.161 749.1 922.361 766.5 922.361 787.5C922.361 808.5 915.161 826.2 900.761 840.6C886.361 854.4 868.061 861.3 845.861 861.3Z" fill="white"/>
</svg>
